<?xml version="1.0" standalone="no"?>
<!DOCTYPE svg PUBLIC "-//W3C//DTD SVG 20010904//EN"
 "http://www.w3.org/TR/2001/REC-SVG-20010904/DTD/svg10.dtd">
<svg version="1.0" xmlns="http://www.w3.org/2000/svg"
 width="1138.000000pt" height="1044.000000pt" viewBox="0 0 1138.000000 1044.000000"
 preserveAspectRatio="xMidYMid meet">

<g transform="translate(0.000000,1044.000000) scale(0.100000,-0.100000)"
fill="#000000" stroke="none">
<path d="M5380 8831 c-108 -13 -224 -33 -235 -41 -5 -4 -30 -11 -55 -15 -47
-7 -131 -30 -165 -46 -11 -4 -49 -18 -83 -30 -35 -12 -114 -47 -175 -78 -102
-52 -141 -75 -277 -168 -49 -33 -195 -166 -274 -248 -115 -120 -173 -196 -269
-357 -56 -93 -80 -143 -153 -313 -18 -44 -62 -204 -69 -255 -4 -25 -11 -58
-16 -75 -11 -37 -36 -323 -33 -385 11 -259 52 -476 122 -640 78 -183 152 -316
256 -455 56 -75 199 -242 221 -257 6 -4 30 -25 55 -48 116 -108 230 -185 405
-275 207 -107 441 -184 635 -209 25 -4 63 -9 85 -12 134 -18 533 3 665 36 19
4 69 16 110 25 214 48 510 190 700 335 275 211 542 593 653 935 34 104 40 128
53 215 3 19 11 64 18 100 18 93 21 142 20 350 -1 146 -5 209 -23 300 -12 63
-24 129 -27 145 -13 75 -73 241 -132 365 -136 285 -421 608 -682 776 -64 41
-71 45 -152 88 -40 21 -80 43 -88 47 -28 15 -125 56 -165 70 -22 7 -45 16 -50
21 -6 4 -29 11 -50 17 -22 6 -67 17 -100 26 -33 9 -87 21 -120 26 -33 5 -80
14 -105 20 -56 13 -411 20 -500 10z m485 -441 c260 -63 284 -71 415 -133 62
-30 210 -114 220 -127 3 -3 16 -13 30 -21 40 -26 180 -160 180 -173 0 -7 -29
-20 -64 -30 -36 -11 -81 -32 -100 -48 -47 -39 -86 -111 -86 -162 -1 -81 -29
-97 -254 -137 -27 -4 -52 -13 -56 -19 -3 -5 -31 -14 -61 -20 -63 -11 -170 -37
-216 -51 -18 -6 -54 -14 -80 -18 -27 -5 -93 -20 -148 -34 -178 -46 -269 -69
-330 -82 -136 -31 -343 -82 -478 -119 -63 -17 -89 -20 -71 -8 6 4 25 34 43 66
18 33 40 69 49 81 9 13 24 33 32 46 56 88 258 246 337 265 15 4 33 10 38 15 6
4 29 12 50 18 22 5 58 15 80 20 22 6 68 11 102 11 60 0 62 1 57 24 -2 14 0 28
6 31 5 3 10 13 10 22 0 13 -2 14 -17 2 -15 -13 -16 -11 -10 21 4 18 13 38 20
42 8 6 5 8 -8 6 -16 -2 -20 2 -18 25 1 18 -3 27 -13 27 -8 0 -14 -7 -14 -16 0
-13 -3 -14 -13 -5 -8 6 -17 8 -20 4 -4 -3 -7 1 -7 10 0 9 7 17 15 17 23 0 18
27 -7 33 -12 4 -24 4 -27 2 -2 -3 1 -5 7 -5 7 0 12 -6 12 -14 0 -17 -28 -41
-37 -32 -4 4 -1 11 7 16 13 8 13 12 -2 26 -16 16 -17 16 -11 -5 4 -18 2 -20
-13 -14 -11 3 -26 15 -35 25 -9 10 -19 15 -22 12 -9 -9 26 -44 45 -44 32 0 20
-29 -14 -32 -41 -4 -47 -24 -9 -33 17 -3 33 -15 36 -25 3 -11 18 -21 33 -23
25 -4 25 -4 -4 -6 -23 -1 -33 -7 -37 -21 -3 -11 -13 -20 -22 -20 -12 0 -15 5
-9 22 6 20 5 21 -10 9 -18 -15 -22 -1 -4 17 8 8 15 9 25 1 10 -9 13 -8 13 4 0
14 -29 45 -37 40 -15 -12 -33 1 -33 22 0 14 -7 28 -15 31 -18 7 -20 40 -2 48
6 3 -15 5 -48 3 -44 -1 -59 1 -57 11 3 17 -25 15 -32 -3 -3 -9 0 -15 9 -15 8
0 15 -7 15 -16 0 -12 -7 -15 -31 -12 -27 4 -32 1 -46 -31 -8 -20 -17 -30 -20
-23 -6 14 -33 16 -33 2 0 -14 -13 -12 -35 4 -16 12 -17 16 -6 30 9 11 10 16 2
16 -6 0 -11 -5 -11 -11 0 -6 -11 -8 -28 -5 -38 9 -69 -14 -54 -40 10 -17 11
-17 12 -1 0 10 8 17 20 17 13 0 20 -7 20 -20 0 -11 -4 -20 -10 -20 -19 0 -10
-43 15 -66 27 -25 30 -40 15 -64 -7 -12 -12 -11 -31 5 -22 20 -22 20 -15 -2 5
-14 3 -23 -3 -23 -6 0 -11 9 -11 20 0 11 -4 20 -10 20 -5 0 -8 22 -7 50 3 42
0 53 -20 72 -13 12 -23 16 -23 10 0 -7 -5 -12 -11 -12 -34 0 -264 -222 -255
-246 3 -7 0 -13 -6 -11 -16 3 -120 -155 -115 -175 3 -10 0 -15 -8 -12 -7 3
-18 -8 -25 -28 -7 -18 -19 -49 -27 -68 -67 -168 -94 -304 -91 -457 2 -90 5
-103 20 -103 20 0 33 17 17 22 -14 5 -22 58 -8 58 5 0 9 9 9 20 0 30 18 24 22
-7 3 -24 5 -25 18 -12 8 8 35 15 59 16 52 3 55 5 46 34 -7 21 -9 21 -20 6 -15
-21 -31 -22 -39 -1 -3 8 -10 13 -16 9 -6 -4 -7 5 -4 25 5 23 3 30 -10 30 -9 0
-16 -4 -16 -10 0 -5 -7 -10 -15 -10 -8 0 -15 5 -15 10 0 6 7 10 15 10 8 0 15
7 15 15 0 8 5 15 12 15 6 0 9 2 7 5 -12 11 -48 -9 -53 -31 -4 -13 -11 -24 -16
-24 -12 0 -13 14 -3 24 4 4 9 22 10 39 5 76 6 77 35 77 23 0 28 -4 28 -26 0
-22 3 -24 23 -18 12 4 40 8 62 9 22 1 46 4 53 9 8 5 12 -1 12 -18 0 -18 4 -24
15 -20 11 5 15 -1 15 -23 0 -27 -3 -30 -30 -28 -34 2 -37 -3 -13 -20 29 -21
53 -7 53 31 0 37 20 48 21 12 0 -13 3 -17 6 -10 11 27 24 10 18 -25 -3 -21 -2
-33 1 -26 4 9 14 4 32 -13 54 -52 119 -66 202 -44 40 11 178 43 365 85 33 7
92 20 130 29 39 9 97 21 129 27 33 5 63 12 67 14 4 3 42 12 86 21 43 9 107 22
143 30 36 8 97 21 135 29 39 8 99 22 135 30 170 41 200 45 234 31 69 -29 95
-121 56 -201 -26 -54 -50 -66 -184 -95 -50 -10 -131 -28 -181 -40 -49 -11
-119 -27 -155 -35 -36 -8 -96 -22 -135 -31 -38 -8 -99 -22 -135 -29 -36 -8
-96 -21 -135 -29 -38 -9 -88 -20 -110 -25 -22 -5 -60 -14 -85 -20 -172 -44
-428 -101 -455 -101 -19 0 -36 6 -38 13 -4 8 -6 6 -6 -4 -1 -11 -18 -19 -53
-27 -55 -11 -156 -33 -268 -58 -36 -8 -83 -19 -105 -24 -22 -4 -71 -16 -110
-25 -130 -32 -138 -32 -158 10 -9 19 -17 44 -17 55 0 10 -4 21 -9 25 -5 3 -12
36 -16 73 -4 37 -11 82 -17 101 -27 87 -3 422 42 586 45 162 129 334 232 474
89 122 281 312 384 380 94 62 274 151 364 181 114 36 124 39 195 51 39 6 88
15 110 20 59 12 451 4 510 -11z m-625 -475 c0 -8 9 -15 20 -15 18 0 20 -6 19
-52 -1 -32 -4 -41 -6 -23 -7 51 -15 63 -23 35 -8 -24 -8 -24 -9 -2 -1 17 -7
22 -30 22 -33 0 -60 -24 -39 -34 10 -5 10 -7 1 -12 -7 -3 -13 -11 -13 -18 0
-7 -9 -21 -19 -30 -11 -10 -17 -24 -14 -32 3 -8 0 -14 -6 -14 -6 0 -11 5 -11
11 0 5 -4 7 -10 4 -5 -3 -10 3 -10 14 0 14 6 21 20 21 19 0 48 46 36 57 -9 10
-46 -9 -46 -23 0 -16 -6 -16 -35 -4 -11 5 -14 9 -7 9 16 1 72 55 72 69 0 14
43 23 54 12 15 -15 26 -12 26 5 0 8 7 15 15 15 8 0 15 -7 15 -15z m-220 -45
c0 -5 -5 -10 -11 -10 -5 0 -7 5 -4 10 3 6 8 10 11 10 2 0 4 -4 4 -10z m301
-51 c-12 -12 -25 -18 -29 -14 -4 4 -1 10 6 12 6 3 12 17 12 31 0 25 1 25 17 9
16 -16 16 -18 -6 -38z m199 22 c0 -16 4 -41 9 -54 9 -22 7 -26 -16 -32 -24 -6
-42 6 -43 28 0 12 28 8 33 -5 2 -7 2 11 -1 40 -3 35 -1 52 7 52 6 0 11 -13 11
-29z m-722 -68 c0 -10 3 -30 7 -45 7 -28 -8 -40 -19 -15 -5 10 -7 10 -12 0 -8
-18 -24 -16 -24 2 0 8 4 15 9 15 5 0 11 14 15 30 6 32 25 42 24 13z m367 -2
c-3 -6 -14 -10 -23 -10 -15 1 -15 2 1 6 9 2 17 9 17 15 0 6 3 9 6 5 3 -3 3
-10 -1 -16z m111 -9 c-4 -11 -13 -23 -21 -26 -9 -3 -12 0 -8 10 3 7 9 14 14
14 5 0 9 8 9 17 0 9 3 14 6 10 3 -3 3 -14 0 -25z m-206 8 c0 -5 -9 -10 -21
-10 -11 0 -17 5 -14 10 3 6 13 10 21 10 8 0 14 -4 14 -10z m348 -25 c-24 -12
-38 -10 -38 5 0 10 30 18 48 12 9 -3 5 -9 -10 -17z m-571 -11 c-3 -3 -12 -4
-19 -1 -8 3 -5 6 6 6 11 1 17 -2 13 -5z m-112 -24 c3 -5 2 -10 -4 -10 -5 0
-13 5 -16 10 -3 6 -2 10 4 10 5 0 13 -4 16 -10z m207 -12 c10 -5 15 -15 11
-24 -7 -18 -28 -13 -28 7 -1 8 -7 13 -15 11 -20 -5 -60 7 -60 18 0 10 66 2 92
-12z m175 0 c-3 -8 -6 -5 -6 6 -1 11 2 17 5 13 3 -3 4 -12 1 -19z m-40 -10
c-3 -8 -6 -5 -6 6 -1 11 2 17 5 13 3 -3 4 -12 1 -19z m-232 -23 c0 -14 -3 -25
-7 -25 -5 0 -8 4 -8 9 0 5 -3 16 -6 25 -4 10 -1 16 7 16 8 0 14 -11 14 -25z
m-65 -1 c0 -8 -4 -12 -10 -9 -5 3 -10 10 -10 16 0 5 5 9 10 9 6 0 10 -7 10
-16z m-12 -66 c-4 -29 -38 -38 -38 -10 0 19 11 29 33 31 5 1 7 -9 5 -21z
m-168 -34 c0 -8 -5 -12 -10 -9 -6 4 -8 11 -5 16 9 14 15 11 15 -7z m38 -25
c-3 -8 -7 -3 -11 10 -4 17 -3 21 5 13 5 -5 8 -16 6 -23z m92 11 c0 -4 9 -10
20 -13 11 -3 20 -10 20 -16 0 -6 -9 -11 -20 -11 -11 0 -20 -4 -20 -10 0 -5 -4
-10 -10 -10 -14 0 -12 27 3 33 7 2 1 10 -15 17 -15 7 -25 16 -23 21 6 9 45 0
45 -11z m50 10 c0 -5 -5 -10 -11 -10 -5 0 -7 5 -4 10 3 6 8 10 11 10 2 0 4 -4
4 -10z m47 4 c-3 -3 -12 -4 -19 -1 -8 3 -5 6 6 6 11 1 17 -2 13 -5z m-239 -53
c3 -8 -1 -12 -9 -9 -7 2 -15 10 -17 17 -3 8 1 12 9 9 7 -2 15 -10 17 -17z m93
-13 c19 -24 25 -48 11 -48 -8 0 -16 14 -40 63 -8 16 11 6 29 -15z m72 -23 c-3
-9 -8 -14 -10 -11 -3 3 -2 9 2 15 9 16 15 13 8 -4z m-73 -45 c0 -5 -9 -10 -20
-10 -11 0 -20 5 -20 10 0 6 9 10 20 10 11 0 20 -4 20 -10z m-2 -32 c-3 -7 -11
-13 -18 -13 -7 0 -15 6 -17 13 -3 7 4 12 17 12 13 0 20 -5 18 -12z m178 -20
c-11 -15 -16 -18 -16 -7 0 16 21 42 28 34 2 -2 -3 -14 -12 -27z m-369 0 c-3
-8 -6 -5 -6 6 -1 11 2 17 5 13 3 -3 4 -12 1 -19z m253 -3 c-7 -8 -19 -15 -26
-15 -8 0 -14 -6 -14 -12 0 -9 -3 -8 -10 2 -11 18 -3 27 30 33 14 2 27 5 29 6
2 0 -2 -6 -9 -14z m90 -24 c0 -6 -4 -13 -10 -16 -5 -3 -10 1 -10 9 0 9 5 16
10 16 6 0 10 -4 10 -9z m-150 -21 c0 -5 -7 -10 -15 -10 -8 0 -15 5 -15 10 0 6
7 10 15 10 8 0 15 -4 15 -10z m58 -10 c-14 -22 -24 -19 -15 5 4 8 11 15 17 15
6 0 6 -7 -2 -20z m2343 -17 c36 -94 49 -197 49 -376 0 -190 -13 -307 -51 -446
-12 -42 -23 -85 -26 -96 -12 -44 -116 -265 -126 -265 -15 0 -137 84 -191 132
-49 43 -49 44 -33 73 21 43 62 167 85 260 44 179 49 286 26 567 -5 68 -3 82
15 111 19 31 29 36 94 50 39 8 89 15 110 16 32 1 39 -3 48 -26z m-2417 -76 c1
-92 -20 -86 -25 8 -3 49 0 67 13 63 7 -3 11 -30 12 -71z m53 -3 c-3 -16 0 -24
9 -24 8 0 14 -7 14 -16 0 -8 -4 -12 -10 -9 -6 3 -7 -1 -4 -9 8 -22 -2 -20 -26
4 -19 19 -27 69 -14 83 14 13 36 -7 31 -29z m63 27 c0 -5 -7 -14 -15 -21 -16
-14 -18 -10 -9 14 6 17 24 22 24 7z m-160 -16 c14 -16 7 -45 -11 -45 -6 0 -13
9 -16 19 -4 16 -9 18 -30 10 -32 -12 -53 -11 -30 2 9 6 15 14 12 20 -10 15 62
10 75 -6z m-50 -35 c0 -5 -4 -10 -10 -10 -5 0 -10 5 -10 10 0 6 5 10 10 10 6
0 10 -4 10 -10z m86 -70 c8 0 14 5 14 10 0 6 5 10 10 10 22 0 8 -30 -20 -45
-19 -10 -30 -23 -30 -37 0 -17 -3 -19 -12 -10 -9 9 -8 16 5 30 21 23 21 32 2
32 -8 0 -15 4 -15 9 0 12 24 20 28 10 2 -5 10 -9 18 -9z m-69 -15 c6 -14 7
-25 2 -25 -5 0 -12 7 -15 15 -4 8 -12 15 -20 15 -8 0 -14 5 -14 10 0 20 35 9
47 -15z m-42 -18 c16 -13 15 -14 -13 -9 -18 2 -29 8 -26 13 7 12 17 11 39 -4z
m140 -45 c3 -14 1 -30 -4 -35 -8 -8 -11 -4 -11 11 0 13 -6 22 -15 22 -8 0 -12
6 -9 13 8 22 32 15 39 -11z m1643 -550 c8 -52 -115 -209 -222 -286 -121 -86
-222 -128 -364 -151 -207 -34 -412 -3 -594 92 -72 38 -107 68 -92 82 5 5 54
18 109 31 55 12 156 35 225 51 69 17 152 36 185 44 122 28 193 46 335 81 80
19 177 42 215 50 39 9 86 19 105 24 60 14 95 8 98 -18z m-1724 -427 c51 -55
183 -169 234 -202 32 -20 95 -55 142 -79 75 -37 120 -55 245 -94 67 -21 180
-33 371 -39 200 -6 201 -6 237 -34 97 -74 88 -196 -18 -251 -37 -19 -55 -21
-245 -20 -208 2 -244 7 -440 57 -132 33 -373 151 -494 241 -152 113 -355 342
-341 385 7 22 56 39 180 64 75 15 93 11 129 -28z m1949 -233 c42 -42 77 -81
77 -88 0 -27 -196 -175 -251 -189 -30 -7 -70 21 -103 74 -31 48 -38 84 -30
139 9 60 72 125 141 145 60 18 66 15 166 -81z"/>
<path d="M5460 8090 c-14 -4 -41 -9 -60 -10 -23 -2 -28 -4 -15 -7 11 -3 36
-23 56 -44 25 -27 41 -38 52 -33 10 3 17 1 17 -6 0 -7 5 -6 15 4 17 17 20 40
4 30 -6 -3 -15 0 -20 7 -7 11 -11 11 -21 -4 -13 -17 -15 -16 -43 13 -21 22
-25 30 -12 30 8 0 19 -4 22 -10 3 -5 12 -10 18 -10 8 0 7 3 -2 9 -20 13 13 21
96 25 84 5 123 -2 123 -21 0 -20 16 -8 23 17 5 19 1 20 -111 19 -65 -1 -128
-5 -142 -9z"/>
<path d="M5741 8076 c12 -10 59 -15 59 -6 0 5 -14 10 -32 10 -17 0 -29 -2 -27
-4z"/>
<path d="M5816 8066 c3 -8 16 -11 35 -8 35 5 34 7 -8 15 -24 5 -31 3 -27 -7z"/>
<path d="M5305 8060 c-3 -5 -17 -10 -31 -10 -13 0 -24 -4 -24 -9 0 -4 19 -5
43 0 23 4 48 8 55 9 23 0 12 20 -12 20 -14 0 -28 -4 -31 -10z"/>
<path d="M5515 8060 c3 -5 10 -10 16 -10 5 0 9 5 9 10 0 6 -7 10 -16 10 -8 0
-12 -4 -9 -10z"/>
<path d="M5890 8050 c0 -6 7 -10 15 -10 8 0 15 2 15 4 0 2 -7 6 -15 10 -8 3
-15 1 -15 -4z"/>
<path d="M5205 8030 c-3 -5 -16 -10 -28 -10 -12 -1 -40 -9 -62 -20 -22 -11
-46 -19 -52 -20 -7 0 -13 -4 -13 -10 0 -5 -8 -10 -17 -10 -22 0 -50 -17 -42
-25 3 -3 19 1 35 10 16 8 37 15 47 15 9 0 17 3 17 8 0 8 38 25 97 41 43 12 67
31 39 31 -8 0 -18 -4 -21 -10z"/>
<path d="M5938 8033 c6 -2 18 -2 25 0 6 3 1 5 -13 5 -14 0 -19 -2 -12 -5z"/>
<path d="M5410 8010 c0 -5 7 -10 16 -10 8 0 12 5 9 10 -3 6 -10 10 -16 10 -5
0 -9 -4 -9 -10z"/>
<path d="M6040 8000 c69 -25 87 -25 35 0 -22 11 -51 19 -65 19 -17 0 -7 -6 30
-19z"/>
<path d="M5228 8003 c7 -3 16 -2 19 1 4 3 -2 6 -13 5 -11 0 -14 -3 -6 -6z"/>
<path d="M5600 7990 c0 -5 5 -10 11 -10 5 0 7 5 4 10 -3 6 -8 10 -11 10 -2 0
-4 -4 -4 -10z"/>
<path d="M5783 7964 c-3 -8 0 -21 6 -27 9 -9 11 -8 5 7 -4 11 -2 21 7 27 10 6
11 9 1 9 -7 0 -15 -7 -19 -16z"/>
<path d="M5340 7953 c0 -15 19 -37 26 -31 3 4 -1 14 -10 23 -9 9 -16 13 -16 8z"/>
<path d="M6155 7950 c27 -12 43 -12 25 0 -8 5 -22 9 -30 9 -10 0 -8 -3 5 -9z"/>
<path d="M6200 7926 c0 -2 7 -7 16 -10 8 -3 12 -2 9 4 -6 10 -25 14 -25 6z"/>
<path d="M6273 7880 c14 -11 30 -20 36 -20 6 0 11 -4 11 -9 0 -5 7 -11 14 -14
10 -4 13 -1 9 9 -3 8 -16 17 -29 20 -13 3 -28 12 -35 20 -6 8 -16 14 -22 14
-5 0 2 -9 16 -20z"/>
<path d="M5587 7852 c7 -4 16 -18 21 -31 5 -14 12 -20 15 -14 8 12 -20 53 -36
53 -9 0 -9 -2 0 -8z"/>
<path d="M5660 7835 c0 -33 15 -33 16 0 1 14 -2 25 -7 25 -5 0 -9 -11 -9 -25z"/>
<path d="M6060 7840 c0 -5 7 -10 15 -10 8 0 15 5 15 10 0 6 -7 10 -15 10 -8 0
-15 -4 -15 -10z"/>
<path d="M5800 7817 c-18 -16 -25 -31 -24 -54 1 -33 -12 -42 -31 -24 -6 6 -25
6 -45 2 -33 -7 -31 -8 30 -15 36 -4 69 -11 75 -16 5 -4 30 -11 55 -14 38 -5
41 -4 20 5 -14 6 -29 12 -35 13 -38 8 -50 18 -52 43 -1 24 25 66 28 46 3 -14
6 -37 8 -55 3 -36 17 -16 19 26 2 57 -14 72 -48 43z"/>
<path d="M5930 7830 c0 -5 5 -10 10 -10 6 0 10 5 10 10 0 6 -4 10 -10 10 -5 0
-10 -4 -10 -10z"/>
<path d="M6025 7810 c3 -5 13 -10 21 -10 8 0 12 5 9 10 -3 6 -13 10 -21 10 -8
0 -12 -4 -9 -10z"/>
<path d="M6370 7812 c0 -4 9 -13 20 -20 11 -7 20 -9 20 -4 0 4 -9 13 -20 20
-11 7 -20 9 -20 4z"/>
<path d="M5581 7776 c-15 -38 -4 -48 45 -44 l39 4 -32 14 c-18 8 -34 23 -36
35 -3 17 -5 16 -16 -9z"/>
<path d="M5640 7790 c0 -5 5 -10 10 -10 6 0 10 5 10 10 0 6 -4 10 -10 10 -5 0
-10 -4 -10 -10z"/>
<path d="M4962 7773 c5 -26 38 -29 38 -4 0 15 -6 21 -21 21 -14 0 -19 -5 -17
-17z"/>
<path d="M5870 7780 c0 -5 5 -10 10 -10 6 0 10 5 10 10 0 6 -4 10 -10 10 -5 0
-10 -4 -10 -10z"/>
<path d="M5740 7770 c0 -5 5 -10 10 -10 6 0 10 5 10 10 0 6 -4 10 -10 10 -5 0
-10 -4 -10 -10z"/>
<path d="M5925 7770 c3 -5 8 -10 11 -10 2 0 4 5 4 10 0 6 -5 10 -11 10 -5 0
-7 -4 -4 -10z"/>
<path d="M6420 7775 c0 -5 5 -17 10 -25 5 -8 10 -10 10 -5 0 6 -5 17 -10 25
-5 8 -10 11 -10 5z"/>
<path d="M5900 7749 c0 -5 -5 -7 -12 -3 -7 4 -8 3 -4 -5 4 -6 12 -9 17 -5 5 3
16 1 23 -5 10 -8 17 -7 26 4 7 9 10 18 6 22 -3 3 -6 1 -6 -5 0 -7 -7 -12 -15
-12 -8 0 -15 5 -15 10 0 6 -4 10 -10 10 -5 0 -10 -5 -10 -11z"/>
<path d="M5938 7703 c10 -4 10 -8 0 -21 -11 -13 -11 -14 2 -10 23 7 25 38 3
37 -11 0 -13 -3 -5 -6z"/>
<path d="M6075 7680 c-3 -5 -1 -10 4 -10 6 0 11 5 11 10 0 6 -2 10 -4 10 -3 0
-8 -4 -11 -10z"/>
<path d="M5998 7643 c7 -3 16 -2 19 1 4 3 -2 6 -13 5 -11 0 -14 -3 -6 -6z"/>
<path d="M6030 7629 c0 -5 5 -7 10 -4 6 3 10 8 10 11 0 2 -4 4 -10 4 -5 0 -10
-5 -10 -11z"/>
<path d="M6070 7610 c20 -13 33 -13 25 0 -3 6 -14 10 -23 10 -15 0 -15 -2 -2
-10z"/>
<path d="M6120 7576 c14 -8 27 -12 29 -10 6 6 -1 11 -29 18 l-25 7 25 -15z"/>
<path d="M4553 7023 c-7 -2 -13 -14 -13 -24 0 -11 5 -17 10 -14 6 4 8 11 5 16
-4 5 1 9 9 9 9 0 16 5 16 10 0 11 -7 12 -27 3z"/>
<path d="M4470 7000 c0 -5 5 -10 11 -10 5 0 7 5 4 10 -3 6 -8 10 -11 10 -2 0
-4 -4 -4 -10z"/>
<path d="M4495 6960 c-3 -5 -1 -10 4 -10 6 0 11 5 11 10 0 6 -2 10 -4 10 -3 0
-8 -4 -11 -10z"/>
<path d="M4697 6837 c6 -113 11 -119 12 -15 1 48 -3 89 -7 92 -5 3 -7 -32 -5
-77z"/>
<path d="M4656 6894 c-9 -25 -7 -64 4 -64 6 0 10 18 10 40 0 43 -4 50 -14 24z"/>
<path d="M4520 6825 c0 -8 5 -15 10 -15 6 0 10 7 10 15 0 8 -4 15 -10 15 -5 0
-10 -7 -10 -15z"/>
<path d="M4555 6830 c-3 -5 -1 -10 4 -10 6 0 11 5 11 10 0 6 -2 10 -4 10 -3 0
-8 -4 -11 -10z"/>
<path d="M4360 6711 c0 -14 5 -19 15 -14 17 6 15 25 -3 31 -7 2 -12 -5 -12
-17z"/>
<path d="M4716 6695 c4 -8 8 -15 10 -15 2 0 4 7 4 15 0 8 -4 15 -10 15 -5 0
-7 -7 -4 -15z"/>
<path d="M4375 6640 c3 -5 8 -10 11 -10 2 0 4 5 4 10 0 6 -5 10 -11 10 -5 0
-7 -4 -4 -10z"/>
<path d="M4750 6626 c0 -8 4 -17 9 -20 5 -4 7 3 4 14 -6 23 -13 26 -13 6z"/>
<path d="M5160 7895 c0 -8 -7 -15 -15 -15 -8 0 -15 -4 -15 -10 0 -15 19 -12
36 4 16 17 19 36 4 36 -5 0 -10 -7 -10 -15z"/>
<path d="M10599 5660 c-53 -9 -130 -71 -161 -128 -23 -42 -45 -138 -57 -242
-6 -47 -17 -130 -26 -185 -16 -94 -32 -211 -55 -400 -6 -44 -14 -102 -20 -130
-5 -27 -12 -79 -15 -115 -7 -72 -26 -160 -34 -160 -8 1 -237 319 -408 568 -24
34 -43 66 -43 71 0 5 -3 11 -7 13 -5 2 -26 30 -48 63 -84 125 -174 243 -202
263 -133 95 -316 50 -396 -95 -26 -49 -47 -150 -68 -323 -5 -41 -15 -115 -23
-165 -7 -49 -19 -126 -25 -170 -6 -44 -16 -109 -21 -145 -22 -148 -32 -230
-39 -313 -4 -48 -11 -91 -15 -95 -10 -10 -49 39 -171 218 -58 85 -135 196
-170 245 -35 50 -89 126 -119 170 -30 45 -85 115 -121 158 -57 67 -76 82 -151
118 -80 39 -93 42 -168 42 -44 0 -106 -7 -136 -15 -30 -9 -91 -23 -135 -33
-316 -66 -418 -111 -571 -258 -114 -107 -222 -281 -259 -414 -11 -38 -23 -63
-31 -63 -8 0 -14 4 -14 9 0 18 -122 170 -158 197 -20 16 -48 38 -60 50 -28 25
-127 77 -192 100 -25 8 -92 18 -150 21 -87 4 -120 2 -186 -15 -44 -12 -91 -27
-104 -34 -99 -53 -158 -105 -207 -182 l-25 -38 -31 34 c-55 60 -110 82 -202
83 -114 0 -181 -39 -231 -135 -36 -68 -17 -228 57 -490 5 -19 14 -55 19 -80 9
-45 25 -116 54 -240 8 -36 25 -101 36 -145 12 -44 25 -98 30 -120 5 -22 16
-69 25 -105 19 -77 42 -178 55 -240 10 -46 15 -67 46 -178 59 -212 312 -261
458 -88 40 47 41 50 45 133 2 68 -3 111 -27 216 -17 73 -38 168 -47 212 -10
44 -23 107 -31 140 -7 33 -20 94 -29 135 -9 41 -28 122 -43 180 -47 187 -34
279 55 365 54 53 98 70 169 68 73 -1 126 -26 176 -81 39 -43 61 -104 98 -272
41 -187 52 -236 66 -296 8 -33 14 -70 14 -82 0 -12 4 -30 9 -40 5 -9 14 -42
20 -72 6 -30 18 -84 26 -120 9 -36 20 -90 25 -120 13 -78 33 -119 77 -161 57
-54 107 -74 184 -73 105 1 191 53 242 146 30 57 19 179 -34 371 -6 22 -8 41
-6 43 8 9 36 -8 51 -31 21 -32 137 -123 206 -162 239 -136 512 -159 785 -67
137 46 242 110 335 204 78 79 131 156 154 224 15 46 15 54 0 106 -31 112 -120
195 -221 206 -95 12 -168 -26 -225 -116 -66 -103 -140 -157 -259 -189 -71 -19
-203 -4 -270 31 -78 42 -179 135 -179 165 0 20 42 33 315 98 39 9 97 23 130
31 33 9 89 21 125 29 36 7 97 21 135 30 39 9 97 22 130 30 33 7 72 16 87 20
28 7 34 2 94 -66 64 -75 200 -280 238 -359 30 -65 112 -171 160 -207 57 -43
125 -58 206 -43 141 26 212 121 240 320 5 41 13 91 16 110 2 19 9 62 14 95 5
33 18 121 30 195 11 74 25 167 30 205 30 215 50 338 55 344 4 3 18 -7 32 -24
14 -16 34 -40 44 -53 10 -12 19 -25 19 -30 0 -4 15 -24 33 -44 17 -20 39 -46
47 -58 8 -12 24 -34 35 -48 11 -15 31 -43 45 -63 14 -20 35 -50 48 -65 27 -36
263 -349 314 -417 43 -58 85 -112 113 -144 24 -28 120 -63 170 -63 95 0 197
58 240 135 29 53 55 186 105 545 5 36 14 106 20 155 16 139 38 294 43 303 3 4
8 43 11 86 4 43 9 82 11 87 3 4 8 34 11 66 3 32 12 99 20 148 7 50 16 110 18
135 2 25 9 68 14 95 25 121 34 208 28 252 -7 52 -36 115 -69 151 -52 57 -161
88 -248 72z m-2669 -1266 c35 -8 86 -29 113 -46 50 -32 137 -124 137 -145 0
-12 -87 -43 -122 -43 -10 0 -44 -6 -76 -14 -31 -8 -93 -22 -137 -32 -44 -9
-143 -32 -220 -51 -77 -20 -157 -38 -177 -40 -36 -5 -38 -3 -38 22 0 46 65
171 119 228 63 66 125 101 216 120 90 20 107 20 185 1z"/>
<path d="M2340 4450 c-25 -5 -76 -16 -115 -25 -38 -9 -95 -20 -125 -26 -30 -6
-64 -14 -75 -18 -11 -5 -99 -25 -195 -46 -210 -44 -247 -57 -300 -102 -113
-97 -124 -202 -50 -478 50 -185 72 -275 85 -335 7 -36 20 -94 29 -130 8 -36
20 -87 26 -115 6 -27 15 -59 20 -70 4 -11 15 -51 24 -90 8 -38 28 -126 45
-195 16 -69 32 -141 36 -160 3 -19 10 -46 15 -60 4 -14 16 -59 25 -100 27
-122 45 -201 60 -265 39 -169 67 -290 86 -380 26 -125 44 -169 84 -220 35 -43
115 -88 177 -100 47 -9 140 18 186 53 19 14 46 44 61 67 23 35 26 50 26 130 0
50 -4 99 -9 110 -5 11 -10 29 -12 40 -5 35 -21 107 -42 190 -11 44 -28 116
-37 160 -10 44 -24 108 -32 143 -8 35 -12 66 -9 69 3 3 16 7 29 8 14 2 33 7
43 13 11 5 47 10 81 11 61 2 62 2 120 -51 32 -29 74 -66 93 -83 19 -16 88 -80
155 -140 66 -61 138 -127 160 -146 22 -20 87 -79 145 -131 119 -107 172 -144
239 -164 108 -32 240 27 293 130 16 30 21 59 21 112 0 81 -18 120 -81 174 -20
17 -59 53 -87 79 -27 25 -84 78 -125 116 -41 38 -104 96 -140 129 -36 34 -107
99 -158 145 -51 46 -92 89 -92 96 0 6 19 25 43 42 154 112 250 252 312 458 25
81 28 106 28 242 0 88 -4 158 -10 165 -6 7 -13 34 -16 60 -4 26 -11 56 -16 65
-5 10 -19 45 -32 78 -73 190 -259 386 -451 473 -131 60 -196 75 -348 78 -80 1
-165 -1 -190 -6z m265 -528 c109 -36 193 -110 251 -222 27 -51 29 -63 29 -170
0 -113 -1 -116 -39 -194 -69 -142 -152 -203 -336 -246 -52 -12 -104 -26 -115
-32 -12 -5 -45 -13 -75 -18 -30 -5 -70 -12 -87 -16 -18 -3 -33 -4 -33 -1 0 3
-20 87 -45 188 -24 101 -51 213 -59 249 -8 36 -22 94 -30 130 -8 36 -22 98
-32 139 -29 124 -23 127 281 190 142 29 208 30 290 3z"/>
<path d="M4370 4073 c-43 -3 -179 -29 -210 -40 -8 -4 -36 -13 -61 -22 -155
-56 -356 -235 -465 -416 -38 -62 -87 -187 -111 -280 -26 -102 -25 -363 1 -460
11 -38 23 -74 28 -80 4 -5 8 -16 8 -24 0 -50 135 -254 231 -350 52 -52 162
-141 173 -141 3 0 27 -13 53 -29 126 -75 280 -113 473 -114 138 -1 225 12 305
43 228 90 339 172 438 325 61 95 83 172 67 232 -25 88 -94 154 -197 189 -99
34 -183 -2 -263 -112 -62 -87 -105 -123 -187 -161 -53 -25 -68 -27 -183 -28
-123 0 -126 1 -195 35 -71 35 -185 135 -185 163 0 9 35 23 108 41 174 45 366
91 527 125 40 9 299 66 365 80 136 31 201 64 234 121 18 29 21 52 21 135 0 85
-4 111 -28 175 -106 281 -358 497 -672 574 -59 15 -188 23 -275 19z m205 -510
c65 -21 169 -87 196 -124 32 -46 23 -61 -46 -75 -33 -6 -105 -23 -160 -37 -55
-14 -152 -37 -215 -52 -63 -14 -159 -37 -213 -51 -54 -13 -100 -24 -104 -24
-3 0 -3 22 -1 48 13 133 131 269 273 315 92 30 178 30 270 0z"/>
<path d="M8475 2675 c-71 -19 -152 -39 -179 -45 -109 -23 -249 -61 -277 -76
-33 -17 -69 -87 -69 -132 1 -44 36 -110 72 -132 27 -17 44 -20 98 -17 36 3 94
12 130 21 36 9 99 22 140 31 41 8 100 22 130 30 30 9 66 19 80 22 120 24 170
59 196 136 15 46 15 51 -1 87 -31 70 -91 111 -158 109 -18 0 -90 -16 -162 -34z"/>
<path d="M7280 2604 c-36 -8 -98 -21 -138 -28 -123 -22 -156 -65 -133 -174 6
-31 18 -88 26 -127 8 -38 21 -101 30 -140 9 -38 20 -89 25 -112 33 -150 57
-192 116 -200 33 -4 45 -1 71 21 17 15 34 40 38 56 6 27 -6 115 -20 152 -7 18
16 31 143 79 124 47 175 115 176 234 1 62 -3 76 -33 126 -36 60 -89 100 -156
118 -49 13 -63 13 -145 -5z m120 -199 c22 -20 26 -65 9 -96 -12 -24 -89 -59
-128 -59 -36 0 -51 28 -54 100 -2 54 -2 55 33 67 45 17 115 10 140 -12z"/>
<path d="M6510 2429 c-30 -5 -64 -13 -75 -18 -11 -6 -50 -11 -86 -13 -54 -3
-73 -9 -103 -31 -33 -26 -36 -32 -36 -78 0 -28 7 -78 15 -112 31 -126 73 -305
91 -386 23 -103 60 -151 116 -151 45 0 86 32 93 73 4 18 -1 64 -9 101 -19 81
-14 91 48 99 58 8 154 51 189 85 49 47 68 87 74 159 15 188 -122 305 -317 272z
m91 -198 c21 -21 29 -39 29 -65 0 -51 -33 -83 -103 -101 -32 -8 -60 -15 -61
-15 -8 0 -38 128 -34 150 2 20 14 27 58 41 75 23 78 23 111 -10z"/>
<path d="M5572 2225 c-35 -29 -53 -78 -77 -205 -9 -52 -23 -122 -31 -155 -29
-129 -46 -233 -51 -307 -5 -72 -4 -78 20 -102 71 -71 162 -24 181 95 6 34 10
37 64 53 31 9 71 21 87 27 17 5 59 12 95 15 l65 6 38 -46 c35 -43 41 -46 86
-46 37 0 52 5 69 23 12 13 22 30 22 38 0 8 5 20 11 26 14 14 -6 53 -58 113
-77 90 -161 197 -208 265 -129 186 -170 225 -243 225 -28 0 -49 -7 -70 -25z
m128 -272 c36 -43 90 -122 90 -131 0 -11 -94 -42 -129 -42 -24 0 -27 21 -11
79 5 20 12 53 15 74 7 41 14 45 35 20z"/>
<path d="M4835 1796 c-27 -8 -113 -28 -190 -45 -77 -18 -156 -37 -175 -42 -19
-6 -58 -13 -86 -18 -58 -9 -144 -54 -144 -76 0 -8 -4 -15 -10 -15 -13 0 -23
-64 -16 -103 9 -46 66 -111 109 -124 36 -11 61 -7 277 42 66 15 218 48 274 60
97 21 157 58 180 108 26 59 27 70 10 119 -30 91 -113 125 -229 94z"/>
<path d="M11355 57 c-11 -23 -21 -45 -23 -49 -2 -5 8 -8 22 -8 25 0 26 3 26
50 0 28 -1 50 -2 50 -2 0 -12 -19 -23 -43z"/>
</g>
</svg>
